<?xml version="1.0" standalone="no"?>
<!DOCTYPE svg PUBLIC "-//W3C//DTD SVG 20010904//EN"
 "http://www.w3.org/TR/2001/REC-SVG-20010904/DTD/svg10.dtd">
<svg version="1.0" xmlns="http://www.w3.org/2000/svg"
 width="180.000000pt" height="180.000000pt" viewBox="0 0 180.000000 180.000000"
 preserveAspectRatio="xMidYMid meet">
<metadata>
Created by potrace 1.14, written by Peter Selinger 2001-2017
</metadata>
<g transform="translate(0.000000,180.000000) scale(0.100000,-0.100000)"
fill="#000000" stroke="none">
<path d="M455 1170 c-17 -4 -42 -14 -57 -24 -26 -17 -68 -91 -68 -120 0 -8
-15 -17 -35 -20 -19 -4 -37 -12 -41 -18 -9 -14 16 -28 41 -24 20 4 20 1 -7
-108 -16 -61 -34 -136 -42 -167 l-13 -56 31 1 c17 1 31 6 32 11 2 31 18 86 25
91 5 3 7 9 5 13 -3 4 7 54 22 111 l27 104 43 1 c39 1 61 14 62 38 0 4 -20 7
-45 7 -51 0 -55 9 -28 65 18 39 61 58 99 44 17 -6 26 -1 42 20 l20 27 -36 2
c-19 2 -38 4 -41 6 -3 1 -20 0 -36 -4z"/>
<path d="M779 1170 c-7 -5 -14 -14 -15 -22 -1 -7 -10 -42 -19 -78 -10 -36 -18
-71 -18 -77 0 -7 -4 -13 -9 -13 -5 0 -7 -4 -4 -8 3 -5 -4 -42 -15 -83 -10 -41
-21 -86 -24 -102 -3 -15 -12 -53 -20 -84 -19 -73 -20 -69 14 -69 26 0 30 4 36
35 4 20 10 40 13 46 4 5 7 19 8 30 1 11 22 99 47 195 24 96 47 187 51 201 4
21 2 28 -13 32 -10 2 -25 1 -32 -3z"/>
<path d="M1339 1168 c0 -2 -2 -10 -4 -18 -2 -8 -27 -105 -55 -215 -29 -110
-53 -208 -54 -218 -1 -9 -7 -22 -13 -28 -5 -5 -8 -21 -5 -35 6 -32 36 -31 51
3 l12 27 22 -25 c12 -13 29 -26 37 -28 33 -9 106 1 140 20 97 55 157 243 104
324 -36 54 -154 54 -214 0 -13 -12 -11 5 11 90 l27 105 -29 0 c-16 0 -29 -1
-30 -2z m171 -218 c22 -22 23 -26 20 -84 -4 -78 -70 -183 -119 -187 -69 -6
-111 20 -111 70 0 38 25 124 46 160 34 57 125 80 164 41z"/>
<path d="M976 1008 c-49 -11 -65 -24 -59 -47 4 -16 8 -16 61 -2 94 24 132 1
117 -69 -6 -27 -10 -30 -48 -31 -39 0 -79 -5 -117 -12 -35 -7 -82 -40 -100
-70 -20 -32 -26 -92 -12 -113 13 -19 56 -38 92 -39 34 -1 117 36 132 59 4 6 8
-4 8 -21 0 -26 4 -33 19 -33 21 0 29 15 37 69 3 20 9 40 12 46 3 5 7 18 8 30
1 11 10 49 19 84 19 76 13 126 -18 142 -27 15 -101 19 -151 7z m98 -197 c3 -4
-4 -25 -14 -47 -18 -41 -62 -81 -90 -82 -8 0 -25 -3 -36 -5 -25 -6 -64 18 -64
39 0 36 30 72 71 86 46 15 126 21 133 9z"/>
<path d="M477 708 c-25 -19 -33 -73 -13 -81 16 -6 65 10 67 22 0 3 2 16 5 28
2 15 -3 26 -15 33 -24 13 -24 13 -44 -2z"/>
</g>
</svg>
