<?xml version="1.0" encoding="UTF-8" standalone="no"?><!DOCTYPE svg PUBLIC "-//W3C//DTD SVG 1.1//EN" "http://www.w3.org/Graphics/SVG/1.1/DTD/svg11.dtd"><svg width="100%" height="100%" viewBox="0 0 7288 10338" version="1.1" xmlns="http://www.w3.org/2000/svg" xmlns:xlink="http://www.w3.org/1999/xlink" xml:space="preserve" xmlns:serif="http://www.serif.com/" style="fill-rule:evenodd;clip-rule:evenodd;stroke-linejoin:round;stroke-miterlimit:2;"><path d="M1424.18,5632.79c-12.546,-0 -24.669,-0.933 -36.367,-2.798c-11.699,-1.865 -22.295,-4.323 -31.789,-7.375l-0,-92.57c8.138,2.713 16.7,4.917 25.685,6.612c8.986,1.696 17.887,2.544 26.703,2.544c23.736,-0 41.453,-8.986 53.152,-26.958c11.698,-17.971 21.108,-43.741 28.228,-77.311l111.898,-527.445l-74.768,-0l11.19,-54.932l81.889,-33.061l11.698,-52.388c6.782,-29.84 14.92,-56.119 24.414,-78.837c9.495,-22.719 21.023,-41.708 34.587,-56.966c13.563,-15.259 29.924,-26.703 49.082,-34.333c19.158,-7.629 41.792,-11.444 67.902,-11.444c17.632,0 34.926,1.78 51.88,5.341c16.954,3.56 32.213,8.731 45.776,15.513l-33.569,83.415c-8.138,-3.73 -16.87,-6.867 -26.194,-9.41c-9.325,-2.543 -19.074,-3.815 -29.247,-3.815c-21.362,0 -37.723,7.884 -49.082,23.651c-11.359,15.768 -20.43,39.249 -27.211,70.445l-10.173,48.828l96.639,0l-18.311,87.993l-97.147,-0l-115.458,539.652c-7.46,35.943 -17.717,67.902 -30.772,95.876c-13.055,27.975 -30.772,49.93 -53.152,65.867c-22.379,15.937 -51.54,23.906 -87.483,23.906Z" style="fill-rule:nonzero;"/><path d="M1997.91,5392.21c-36.282,-0 -67.732,-7.799 -94.35,-23.397c-26.618,-15.598 -47.218,-38.062 -61.798,-67.393c-14.581,-29.331 -21.871,-64.341 -21.871,-105.032c-0,-33.23 3.391,-67.732 10.172,-103.505c6.782,-35.773 17.124,-70.445 31.027,-104.014c13.902,-33.569 31.534,-63.833 52.897,-90.79c21.362,-26.957 46.709,-48.404 76.039,-64.341c29.331,-15.937 62.816,-23.906 100.454,-23.906c36.621,0 68.156,7.884 94.605,23.652c26.448,15.767 46.708,38.486 60.78,68.155c14.072,29.67 21.108,65.359 21.108,107.066c0,35.265 -3.39,70.954 -10.172,107.066c-6.782,36.113 -17.209,70.699 -31.281,103.76c-14.072,33.061 -31.789,62.561 -53.151,88.501c-21.362,25.94 -46.539,46.454 -75.531,61.544c-28.992,15.089 -61.968,22.634 -98.928,22.634Zm10.173,-91.553c17.971,-0 34.671,-5.765 50.099,-17.293c15.429,-11.529 29.162,-27.297 41.199,-47.303c12.038,-20.006 22.295,-42.724 30.772,-68.156c8.477,-25.431 14.92,-52.049 19.328,-79.854c4.408,-27.805 6.612,-55.271 6.612,-82.397c-0,-20.006 -2.458,-37.808 -7.375,-53.406c-4.917,-15.598 -12.885,-27.975 -23.906,-37.13c-11.02,-9.155 -25.516,-13.733 -43.487,-13.733c-19.667,0 -37.554,6.443 -53.66,19.328c-16.107,12.885 -30.179,29.924 -42.216,51.117c-12.038,21.193 -22.126,44.759 -30.264,70.699c-8.138,25.94 -14.326,52.388 -18.564,79.346c-4.239,26.957 -6.358,52.134 -6.358,75.531c-0,33.23 6.612,58.746 19.836,76.548c13.224,17.802 32.552,26.703 57.984,26.703Z" style="fill-rule:nonzero;"/><path d="M2313.77,5382.54l119.019,-563.05l85.449,0l-10.681,98.165l4.577,0c12.885,-22.04 26.703,-41.199 41.453,-57.475c14.75,-16.276 31.111,-28.822 49.083,-37.638c17.971,-8.816 37.977,-13.224 60.018,-13.224c8.138,-0 16.276,0.508 24.414,1.526c8.138,1.017 15.937,2.712 23.397,5.086l-27.975,109.355c-6.443,-2.374 -13.563,-4.154 -21.362,-5.341c-7.799,-1.187 -16.107,-1.78 -24.923,-1.78c-20.006,-0 -38.316,5.171 -54.932,15.513c-16.615,10.342 -31.534,24.414 -44.759,42.216c-13.224,17.802 -24.498,38.147 -33.823,61.035c-9.325,22.888 -16.7,46.878 -22.126,71.971l-57.474,273.641l-109.355,-0Z" style="fill-rule:nonzero;"/><path d="M2826.97,5392.71c-36.621,0 -64.85,-9.24 -84.686,-27.72c-19.837,-18.48 -29.755,-47.217 -29.755,-86.212c0,-9.834 0.763,-20.854 2.289,-33.061c1.526,-12.207 3.645,-25.262 6.358,-39.164l63.578,-299.072l-66.121,-0l11.698,-55.949l79.854,-33.57l55.949,-122.578l73.242,-0l-26.957,124.104l113.932,0l-18.819,87.993l-113.423,-0l-64.596,304.667c-1.695,8.477 -3.221,16.785 -4.578,24.923c-1.356,8.138 -2.034,15.428 -2.034,21.87c-0,13.564 3.306,23.821 9.918,30.772c6.612,6.952 17.039,10.427 31.281,10.427c9.494,0 19.667,-1.102 30.517,-3.306c10.851,-2.204 22.041,-5.51 33.57,-9.918l-0,85.449c-12.886,6.104 -28.568,11.02 -47.048,14.75c-18.48,3.73 -36.537,5.595 -54.169,5.595Z" style="fill-rule:nonzero;"/><path d="M3217.6,5392.71c-37.638,0 -70.19,-7.544 -97.656,-22.634c-27.466,-15.089 -48.744,-37.214 -63.833,-66.375c-15.089,-29.162 -22.634,-64.596 -22.634,-106.303c0,-49.846 6.273,-97.911 18.819,-144.196c12.547,-46.285 30.772,-87.738 54.678,-124.359c23.905,-36.621 52.897,-65.698 86.975,-87.229c34.078,-21.532 72.649,-32.298 115.712,-32.298c47.472,-0 84.178,11.783 110.118,35.349c25.94,23.567 38.91,56.034 38.91,97.402c-0,30.179 -6.358,57.56 -19.074,82.143c-12.715,24.584 -31.534,45.607 -56.457,63.07c-24.923,17.463 -55.78,30.857 -92.57,40.182c-36.791,9.324 -79.431,13.987 -127.92,13.987l-15.258,-0c-1.357,8.138 -2.459,16.53 -3.307,25.177c-0.847,8.646 -1.271,17.208 -1.271,25.685c-0,36.961 8.307,65.02 24.923,84.178c16.615,19.158 41.029,28.737 73.242,28.737c24.414,0 46.878,-3.136 67.393,-9.409c20.514,-6.273 43.826,-16.022 69.936,-29.246l-0,86.975c-24.414,13.224 -49.422,23.058 -75.023,29.5c-25.6,6.443 -54.168,9.664 -85.703,9.664Zm-55.949,-331.624l10.681,-0c40.351,-0 74.005,-4.578 100.963,-13.733c26.957,-9.155 47.217,-22.21 60.78,-39.164c13.564,-16.955 20.345,-36.96 20.345,-60.018c0,-16.276 -4.577,-29.161 -13.732,-38.656c-9.156,-9.494 -23.058,-14.241 -41.708,-14.241c-18.649,-0 -36.96,6.781 -54.931,20.345c-17.972,13.563 -34.078,32.806 -48.32,57.729c-14.242,24.922 -25.601,54.169 -34.078,87.738Z" style="fill-rule:nonzero;"/><path d="M3433.26,5382.54l212.605,-290.426l-86.975,-272.624l114.95,0l51.88,188.192l126.648,-188.192l125.122,0l-204.977,278.728l93.587,284.322l-115.966,-0l-56.966,-198.873l-136.312,198.873l-123.596,-0Z" style="fill-rule:nonzero;"/><path d="M4095.49,5392.71c-36.621,0 -64.85,-9.24 -84.686,-27.72c-19.837,-18.48 -29.755,-47.217 -29.755,-86.212c0,-9.834 0.763,-20.854 2.289,-33.061c1.526,-12.207 3.645,-25.262 6.358,-39.164l63.578,-299.072l-66.121,-0l11.698,-55.949l79.854,-33.57l55.949,-122.578l73.242,-0l-26.957,124.104l113.932,0l-18.819,87.993l-113.423,-0l-64.596,304.667c-1.695,8.477 -3.221,16.785 -4.578,24.923c-1.356,8.138 -2.034,15.428 -2.034,21.87c-0,13.564 3.306,23.821 9.918,30.772c6.612,6.952 17.039,10.427 31.281,10.427c9.494,0 19.667,-1.102 30.517,-3.306c10.851,-2.204 22.041,-5.51 33.57,-9.918l-0,85.449c-12.886,6.104 -28.568,11.02 -47.048,14.75c-18.48,3.73 -36.537,5.595 -54.169,5.595Z" style="fill-rule:nonzero;"/><path d="M4500.35,5382.54l168.356,-791.423l109.354,0l-168.355,791.423l-109.355,-0Z" style="fill-rule:nonzero;"/><path d="M4908.27,5392.71c-26.11,0 -49.167,-6.612 -69.173,-19.836c-20.006,-13.225 -35.689,-33.146 -47.048,-59.764c-11.36,-26.618 -17.039,-59.763 -17.039,-99.436c-0,-34.926 3.475,-71.123 10.427,-108.592c6.951,-37.469 17.208,-73.751 30.771,-108.846c13.564,-35.095 30.348,-66.715 50.354,-94.859c20.006,-28.144 42.979,-50.523 68.919,-67.138c25.94,-16.616 54.847,-24.923 86.721,-24.923c20.006,-0 37.638,3.56 52.897,10.681c15.259,7.121 28.399,17.124 39.419,30.009c11.02,12.885 19.582,28.313 25.685,46.285l4.069,-0l26.958,-76.803l89.009,0l-119.527,563.05l-85.958,-0l7.63,-83.924l-3.052,0c-13.564,17.972 -27.89,34.078 -42.979,48.32c-15.089,14.241 -31.535,25.431 -49.337,33.569c-17.802,8.138 -37.384,12.207 -58.746,12.207Zm41.199,-91.553c22.379,0 42.809,-8.985 61.289,-26.957c18.48,-17.971 34.587,-41.283 48.319,-69.936c13.733,-28.652 24.33,-58.916 31.79,-90.79c6.103,-24.753 10.426,-46.963 12.97,-66.63c2.543,-19.667 3.814,-38.486 3.814,-56.457c0,-26.788 -6.103,-48.235 -18.31,-64.341c-12.207,-16.107 -29.331,-24.16 -51.372,-24.16c-17.632,-0 -34.247,6.358 -49.845,19.073c-15.598,12.716 -29.585,29.755 -41.962,51.117c-12.376,21.363 -22.973,45.353 -31.789,71.971c-8.816,26.618 -15.598,53.999 -20.345,82.143c-4.747,28.144 -7.121,54.932 -7.121,80.363c0,31.535 5.341,55.186 16.022,70.953c10.681,15.768 26.194,23.651 46.54,23.651Z" style="fill-rule:nonzero;"/><path d="M5517.1,5392.71c-20.684,0 -38.909,-3.645 -54.677,-10.935c-15.767,-7.291 -28.992,-17.294 -39.673,-30.009c-10.681,-12.716 -19.073,-27.381 -25.177,-43.996l-4.069,-0l-28.991,74.768l-85.45,-0l167.847,-791.423l109.355,0l-42.725,199.382c-2.713,12.207 -5.764,25.261 -9.155,39.164c-3.391,13.902 -6.867,27.127 -10.427,39.673c-3.56,12.546 -6.697,22.888 -9.41,31.026l3.052,-0c12.546,-17.972 26.025,-33.739 40.436,-47.302c14.411,-13.564 30.178,-24.245 47.302,-32.044c17.124,-7.799 36.028,-11.698 56.712,-11.698c26.109,-0 49.167,6.612 69.173,19.836c20.006,13.225 35.689,32.976 47.048,59.255c11.359,26.279 17.039,59.594 17.039,99.945c0,34.587 -3.476,70.615 -10.427,108.083c-6.951,37.469 -17.123,73.751 -30.517,108.846c-13.394,35.096 -30.094,66.8 -50.1,95.114c-20.006,28.313 -43.148,50.777 -69.427,67.393c-26.28,16.615 -55.526,24.922 -87.739,24.922Zm-13.732,-91.044c17.632,0 34.162,-6.527 49.591,-19.582c15.428,-13.055 29.33,-30.433 41.707,-52.134c12.377,-21.702 22.888,-45.861 31.535,-72.479c8.646,-26.619 15.259,-53.915 19.836,-81.889c4.578,-27.975 6.867,-54.508 6.867,-79.6c-0,-31.874 -5.256,-55.525 -15.768,-70.954c-10.511,-15.428 -26.448,-23.142 -47.811,-23.142c-15.937,-0 -30.941,4.832 -45.013,14.496c-14.072,9.664 -26.957,22.888 -38.656,39.673c-11.698,16.784 -22.21,35.688 -31.534,56.711c-9.325,21.024 -17.124,42.979 -23.397,65.867c-6.273,22.889 -11.105,45.607 -14.496,68.156c-3.391,22.549 -5.086,43.318 -5.086,62.307c-0,28.822 6.103,51.456 18.31,67.902c12.207,16.445 30.179,24.668 53.915,24.668Z" style="fill-rule:nonzero;"/></svg>