<?xml version="1.0" encoding="UTF-8"?>
<svg id="Ebene_1" data-name="Ebene 1" xmlns="http://www.w3.org/2000/svg" viewBox="0 0 1796.51 251.32">
  <defs>
    <style>
      .cls-1 {
        fill: #a80000;
      }
    </style>
  </defs>
  <path d="M18.92,251.32c-4.15,0-7.77-.31-10.86-.92s-5.78-1.32-8.06-2.14v-16.48c2.52.81,5.09,1.44,7.69,1.89,2.61.45,5.54.67,8.79.67,5.53,0,10.01-1.55,13.43-4.64s5.13-8.71,5.13-16.85V57.45h20.26v154.91c0,8.14-1.3,15.12-3.91,20.93-2.61,5.82-6.59,10.27-11.96,13.37-5.37,3.09-12.21,4.64-20.51,4.64v.02ZM33.2,20.73c0-4.56,1.16-7.91,3.48-10.07,2.32-2.16,5.23-3.23,8.73-3.23s6.2,1.08,8.61,3.23c2.4,2.16,3.6,5.51,3.6,10.07s-1.2,7.81-3.6,10.01-5.27,3.3-8.61,3.3-6.41-1.1-8.73-3.3-3.48-5.53-3.48-10.01Z"/>
  <path d="M213.5,124.13c0,10.99-1.42,20.79-4.27,29.42s-6.96,15.91-12.33,21.85-11.86,10.48-19.47,13.61-16.22,4.7-25.82,4.7c-8.95,0-17.15-1.57-24.6-4.7s-13.88-7.67-19.29-13.61-9.6-13.22-12.57-21.85c-2.97-8.62-4.46-18.43-4.46-29.42,0-14.65,2.48-27.12,7.45-37.41,4.96-10.29,12.06-18.15,21.3-23.56s20.24-8.12,33.02-8.12,22.89,2.73,32.04,8.18c9.16,5.45,16.28,13.33,21.36,23.62,5.08,10.3,7.63,22.73,7.63,37.29h0ZM111.69,124.13c0,10.74,1.42,20.06,4.27,27.95,2.85,7.89,7.24,14,13.18,18.31,5.94,4.31,13.59,6.47,22.95,6.47s16.91-2.16,22.89-6.47c5.98-4.31,10.4-10.42,13.24-18.31,2.85-7.89,4.27-17.21,4.27-27.95s-1.42-19.88-4.27-27.65-7.24-13.77-13.18-18.01c-5.94-4.23-13.63-6.35-23.07-6.35-13.92,0-24.11,4.6-30.58,13.79-6.47,9.2-9.7,21.93-9.7,38.21h0Z"/>
  <path d="M359.01,57.48v133.79h-16.6l-2.93-18.8h-1.1c-2.77,4.64-6.35,8.54-10.74,11.72s-9.34,5.55-14.83,7.14-11.33,2.38-17.52,2.38c-10.58,0-19.45-1.71-26.61-5.13s-12.55-8.71-16.17-15.87-5.43-16.36-5.43-27.59V57.47h20.51v86.18c0,11.15,2.52,19.47,7.57,24.96,5.04,5.49,12.74,8.24,23.07,8.24s17.84-1.87,23.74-5.62c5.9-3.74,10.15-9.26,12.76-16.54,2.6-7.28,3.91-16.21,3.91-26.79V57.47h20.39-.02Z"/>
  <path d="M462.64,55.04c2.69,0,5.49.14,8.42.43s5.53.67,7.81,1.16l-2.56,18.8c-2.2-.57-4.64-1.02-7.32-1.34-2.69-.32-5.21-.49-7.57-.49-5.37,0-10.44,1.08-15.2,3.23-4.76,2.16-8.93,5.25-12.51,9.28s-6.39,8.87-8.42,14.53c-2.04,5.66-3.05,11.94-3.05,18.86v71.78h-20.39V57.49h16.85l2.2,24.66h.85c2.77-4.96,6.1-9.5,10.01-13.61s8.44-7.39,13.61-9.83,10.93-3.66,17.27-3.66h0Z"/>
  <path d="M567.38,55.04c15.87,0,27.87,3.89,36.01,11.66s12.21,20.24,12.21,37.41v87.16h-20.02v-85.82c0-11.15-2.54-19.49-7.63-25.02s-12.88-8.3-23.38-8.3c-14.81,0-25.23,4.19-31.25,12.57s-9.03,20.55-9.03,36.5v70.07h-20.26V57.48h16.36l3.05,19.29h1.1c2.85-4.72,6.47-8.69,10.86-11.9s9.32-5.66,14.77-7.32c5.45-1.67,11.19-2.5,17.21-2.5h0Z"/>
  <path d="M707.39,55.28c15.95,0,27.79,3.58,35.52,10.74,7.73,7.16,11.6,18.6,11.6,34.3v90.94h-14.77l-3.91-19.78h-.98c-3.74,4.88-7.65,8.97-11.72,12.27s-8.77,5.78-14.1,7.45c-5.33,1.67-11.86,2.5-19.59,2.5-8.14,0-15.36-1.42-21.67-4.27s-11.27-7.16-14.89-12.94c-3.62-5.78-5.43-13.1-5.43-21.97,0-13.35,5.29-23.6,15.87-30.76s26.69-11.07,48.34-11.72l23.07-.98v-8.18c0-11.55-2.48-19.65-7.45-24.29-4.96-4.64-11.96-6.96-21-6.96-7,0-13.67,1.02-20.02,3.05-6.35,2.04-12.37,4.44-18.07,7.2l-6.23-15.38c6.02-3.09,12.94-5.74,20.75-7.93s16.03-3.3,24.66-3.3h.02ZM734.49,125.35l-20.39.85c-16.68.65-28.44,3.38-35.28,8.18-6.84,4.8-10.25,11.6-10.25,20.39,0,7.65,2.32,13.31,6.96,16.97s10.78,5.49,18.43,5.49c11.88,0,21.61-3.3,29.17-9.89s11.35-16.48,11.35-29.66v-12.33h.01Z"/>
  <path d="M816.65,191.27h-20.39V1.33h20.39v189.94Z"/>
  <path d="M984.62,73.35h-33.33v117.92h-20.26v-117.92h-23.68v-9.77l23.68-6.71v-8.91c0-11.23,1.67-20.36,5-27.4,3.34-7.04,8.18-12.23,14.53-15.56,6.35-3.34,14.08-5,23.19-5,5.13,0,9.83.45,14.1,1.34,4.27.9,8.04,1.91,11.29,3.05l-5.25,15.99c-2.77-.89-5.88-1.73-9.34-2.5-3.46-.77-6.98-1.16-10.56-1.16-7.73,0-13.45,2.5-17.15,7.51-3.7,5-5.55,12.84-5.55,23.5v9.77h33.33v15.87-.02Z"/>
  <path d="M1124.51,124.13c0,10.99-1.42,20.79-4.27,29.42s-6.96,15.91-12.33,21.85-11.86,10.48-19.47,13.61-16.22,4.7-25.82,4.7c-8.95,0-17.15-1.57-24.6-4.7-7.45-3.13-13.88-7.67-19.29-13.61-5.41-5.94-9.6-13.22-12.57-21.85-2.97-8.62-4.46-18.43-4.46-29.42,0-14.65,2.48-27.12,7.45-37.41,4.96-10.29,12.06-18.15,21.3-23.56s20.24-8.12,33.02-8.12,22.89,2.73,32.04,8.18c9.16,5.45,16.28,13.33,21.36,23.62,5.08,10.3,7.63,22.73,7.63,37.29h.01ZM1022.7,124.13c0,10.74,1.42,20.06,4.27,27.95,2.85,7.89,7.24,14,13.18,18.31s13.59,6.47,22.95,6.47,16.91-2.16,22.89-6.47c5.98-4.31,10.4-10.42,13.25-18.31s4.27-17.21,4.27-27.95-1.42-19.88-4.27-27.65-7.24-13.77-13.18-18.01c-5.94-4.23-13.63-6.35-23.07-6.35-13.92,0-24.11,4.6-30.58,13.79-6.47,9.2-9.71,21.93-9.71,38.21h0Z"/>
  <path d="M1220.33,55.04c2.69,0,5.49.14,8.42.43s5.53.67,7.81,1.16l-2.56,18.8c-2.2-.57-4.64-1.02-7.32-1.34-2.69-.32-5.21-.49-7.57-.49-5.37,0-10.44,1.08-15.2,3.23-4.76,2.16-8.93,5.25-12.51,9.28s-6.39,8.87-8.42,14.53c-2.04,5.66-3.05,11.94-3.05,18.86v71.78h-20.39V57.49h16.85l2.2,24.66h.85c2.77-4.96,6.1-9.5,10.01-13.61s8.44-7.39,13.61-9.83c5.17-2.44,10.92-3.66,17.27-3.66h0Z"/>
  <path d="M1319.58,191.27h-20.87V31.11h-56.15V12.8h132.93v18.31h-55.91v160.16Z"/>
  <path d="M1501.83,191.27h-99.37V12.8h99.37v18.31h-78.61v57.74h74.1v18.07h-74.1v66.04h78.61v18.31h0Z"/>
  <path d="M1660.52,191.27h-23.56l-48.22-78.61-48.95,78.61h-22.09l59.45-93.02-55.3-85.45h23.07l44.56,71.17,44.8-71.17h21.97l-55.18,85.08,59.45,93.38h0Z"/>
  <path d="M1740.6,191.27h-20.87V31.11h-56.15V12.8h132.93v18.31h-55.91v160.16Z"/>
  <circle class="cls-1" cx="872.74" cy="175.83" r="15.37"/>
</svg>